# xmcd
#
# Track frame offsets: 
#        150
#        19398
#        33971
#        52253
#        65905
#        83243
#        99128
#        115248
#        131008
#        145229
#        164289
#        180960
#        202387
#        219111
#        238829
#        257122
#        284808
#        300582
#
# Disc length: 4230 seconds
#
# Revision: 0
# Processed by: cddbd v1.5.2PL0 Copyright (c) Steve Scherf et al.
# Submitted via: ExactAudioCopy v1.3
#
DISCID=11108412
DTITLE=Noel Soto - Todas sus grabaciones para discos Polydor (1974 - 1
DTITLE=981)
DYEAR=1999
DGENRE=Pop
TTITLE0=Noche de Samba en Puerto Espana
TTITLE1=Mi Cancion
TTITLE2=Los que Hemos Vivido el Rock and Roll
TTITLE3=Abigail
TTITLE4=Mas Alla de Canaan
TTITLE5=Camino de Katmandu
TTITLE6=Aire de Fandango
TTITLE7=Sentado Frente a Mi Mismo
TTITLE8=Cabecita de Mujer
TTITLE9=El Tren de la Esperanza
TTITLE10=Obertura
TTITLE11=Ahora que Somos Dos
TTITLE12=Vamos a Hacer el Amor
TTITLE13=Tu
TTITLE14=Nos Falta Comunicacion
TTITLE15=Flechas en el Aire
TTITLE16=Sueno de Cristal
TTITLE17=Miserere Nobis
EXTD=
EXTT0=
EXTT1=
EXTT2=
EXTT3=
EXTT4=
EXTT5=
EXTT6=
EXTT7=
EXTT8=
EXTT9=
EXTT10=
EXTT11=
EXTT12=
EXTT13=
EXTT14=
EXTT15=
EXTT16=
EXTT17=
PLAYORDER=
